<svg xmlns="http://www.w3.org/2000/svg" viewBox="0 0 380 150" class="logo">
  <defs>
    <radialGradient id="friendlyGorilla" cx="50%" cy="40%" r="70%">
      <stop offset="0%" style="stop-color:#4a4a4a;stop-opacity:1" />
      <stop offset="70%" style="stop-color:#353535;stop-opacity:1" />
      <stop offset="100%" style="stop-color:#2a2a2a;stop-opacity:1" />
    </radialGradient>
    <radialGradient id="friendlyFace" cx="50%" cy="30%" r="80%">
      <stop offset="0%" style="stop-color:#a1845c;stop-opacity:1" />
      <stop offset="60%" style="stop-color:#8b7355;stop-opacity:1" />
      <stop offset="100%" style="stop-color:#6f5d42;stop-opacity:1" />
    </radialGradient>
    <linearGradient id="happyText" x1="0%" y1="0%" x2="100%" y2="0%">
      <stop offset="0%" style="stop-color:#e67e22;stop-opacity:1" />
      <stop offset="50%" style="stop-color:#f39c12;stop-opacity:1" />
      <stop offset="100%" style="stop-color:#d68910;stop-opacity:1" />
    </linearGradient>
  </defs>
  
  <!-- è¦ªã—ã¿ã‚„ã™ã„ã‚´ãƒªãƒ© -->
  <!-- ä½“ -->
  <ellipse cx="90" cy="95" rx="42" ry="50" fill="url(#friendlyGorilla)"/>
  
  <!-- ä¸¸ã„é ­ -->
  <circle cx="90" cy="50" r="32" fill="url(#friendlyGorilla)"/>
  
  <!-- å„ªã—ã„é¡” -->
  <ellipse cx="90" cy="55" rx="24" ry="26" fill="url(#friendlyFace)"/>
  
  <!-- ç¬‘é¡”ã®ç›® -->
  <path d="M78 48 Q82 45 86 48" fill="none" stroke="#2c1810" stroke-width="2"/>
  <path d="M94 48 Q98 45 102 48" fill="none" stroke="#2c1810" stroke-width="2"/>
  <circle cx="82" cy="48" r="1" fill="#2c1810"/>
  <circle cx="98" cy="48" r="1" fill="#2c1810"/>
  
  <!-- å¯æ„›ã„é¼» -->
  <ellipse cx="90" cy="58" rx="5" ry="4" fill="#6f5d42"/>
  <ellipse cx="88" cy="60" rx="1.5" ry="1" fill="#2c1810"/>
  <ellipse cx="92" cy="60" rx="1.5" ry="1" fill="#2c1810"/>
  
  <!-- å„ªã—ã„ç¬‘é¡” -->
  <path d="M82 65 Q90 70 98 65" fill="none" stroke="#2c1810" stroke-width="2"/>
  
  <!-- ä¸¸ã„é ¬ -->
  <circle cx="70" cy="58" r="6" fill="#a1845c" opacity="0.7"/>
  <circle cx="110" cy="58" r="6" fill="#a1845c" opacity="0.7"/>
  
  <!-- è…• -->
  <ellipse cx="55" cy="80" rx="16" ry="32" fill="url(#friendlyGorilla)" transform="rotate(-12 55 80)"/>
  <ellipse cx="125" cy="80" rx="16" ry="32" fill="url(#friendlyGorilla)" transform="rotate(12 125 80)"/>
  
  <!-- æ‰‹ -->
  <ellipse cx="48" cy="100" rx="11" ry="9" fill="url(#friendlyFace)"/>
  <ellipse cx="132" cy="100" rx="11" ry="9" fill="url(#friendlyFace)"/>
  
  <!-- æ¥½ã—ãã†ã«æœ¬ã‚’èª­ã‚“ã§ã„ã‚‹ -->
  <rect x="75" y="90" width="30" height="22" fill="#27ae60" rx="3"/>
  <rect x="77" y="92" width="26" height="18" fill="#fff"/>
  
  <!-- æœ¬ã®ä¸­èº«ï¼ˆçµµæœ¬é¢¨ï¼‰ -->
  <circle cx="85" cy="98" r="3" fill="#f1c40f"/>
  <rect x="88" y="96" width="8" height="1" fill="#2c3e50"/>
  <rect x="88" y="98" width="6" height="1" fill="#2c3e50"/>
  <rect x="88" y="100" width="7" height="1" fill="#2c3e50"/>
  <rect x="88" y="102" width="5" height="1" fill="#2c3e50"/>
  
  <circle cx="95" cy="104" r="2" fill="#e74c3c"/>
  <rect x="82" y="105" width="6" height="1" fill="#2c3e50"/>
  <rect x="82" y="107" width="8" height="1" fill="#2c3e50"/>
  
  <line x1="90" y1="92" x2="90" y2="110" stroke="#27ae60" stroke-width="2"/>
  
  <!-- è¶³ -->
  <ellipse cx="75" cy="125" rx="18" ry="12" fill="url(#friendlyFace)"/>
  <ellipse cx="105" cy="125" rx="18" ry="12" fill="url(#friendlyFace)"/>
  
  <!-- æ¥½ã—ã’ãªãƒ†ã‚­ã‚¹ãƒˆ -->
  <text x="160" y="60" font-family="'Comic Sans MS', 'Marker Felt', cursive" font-size="34" font-weight="bold" 
        fill="url(#happyText)">é€Ÿèª­</text>
  <text x="160" y="100" font-family="'Comic Sans MS', 'Marker Felt', cursive" font-size="34" font-weight="bold" 
        fill="url(#happyText)">ã‚´ãƒªãƒ©</text>
  
  <!-- æ¥½ã—ã„é›°å›²æ°—ã®ã‚¨ãƒ•ã‚§ã‚¯ãƒˆ -->
  <g opacity="0.7">
    <circle cx="145" cy="35" r="3" fill="#f1c40f"/>
    <circle cx="155" cy="30" r="2" fill="#e67e22"/>
    <circle cx="150" cy="115" r="2.5" fill="#27ae60"/>
    <circle cx="140" cy="120" r="2" fill="#3498db"/>
    <text x="320" y="65" font-family="serif" font-size="18" fill="#f39c12">ðŸ˜Š</text>
  </g>
</svg>