<svg width="240" height="80" viewBox="0 0 240 80" xmlns="http://www.w3.org/2000/svg">
  <defs>
    <linearGradient id="shark" x1="0%" y1="0%" x2="100%" y2="0%">
      <stop offset="0%" style="stop-color:#001122;stop-opacity:1" />
      <stop offset="50%" style="stop-color:#0066CC;stop-opacity:1" />
      <stop offset="100%" style="stop-color:#00AAFF;stop-opacity:1" />
    </linearGradient>
  </defs>
  <!-- Cyber shark body -->
  <path d="M15,40 Q25,30 45,35 Q65,38 80,40 Q65,42 45,45 Q25,50 15,40" fill="url(#shark)"/>
  <!-- Shark fin -->
  <polygon points="35,35 45,25 50,35" fill="#00AAFF"/>
  <!-- Shark tail -->
  <polygon points="15,40 10,35 5,40 10,45" fill="#0066CC"/>
  <!-- Cyber eye -->
  <circle cx="60" cy="40" r="3" fill="#FF0000"/>
  <circle cx="61" cy="39" r="1" fill="#FFFFFF"/>
  <!-- Digital lines -->
  <line x1="85" y1="35" x2="100" y2="30" stroke="#00AAFF" stroke-width="2"/>
  <line x1="85" y1="40" x2="105" y2="40" stroke="#0066CC" stroke-width="2"/>
  <line x1="85" y1="45" x2="100" y2="50" stroke="#00AAFF" stroke-width="2"/>
  <!-- Aggressive text -->
  <text x="115" y="35" font-family="Arial Black, sans-serif" font-size="20" font-weight="900" fill="#001122">すいすい</text>
  <text x="115" y="52" font-family="Arial Black, sans-serif" font-size="16" font-weight="900" fill="#0066CC">リーダー</text>
  <text x="115" y="65" font-family="Arial, sans-serif" font-size="9" fill="#00AAFF">PREDATOR MODE</text>
</svg>