<svg width="240" height="80" viewBox="0 0 240 80" xmlns="http://www.w3.org/2000/svg">
  <defs>
    <radialGradient id="vortex" cx="50%" cy="50%" r="50%">
      <stop offset="0%" style="stop-color:#FFFFFF;stop-opacity:1" />
      <stop offset="30%" style="stop-color:#00D4AA;stop-opacity:1" />
      <stop offset="70%" style="stop-color:#0099CC;stop-opacity:1" />
      <stop offset="100%" style="stop-color:#003366;stop-opacity:1" />
    </radialGradient>
  </defs>
  <!-- Vortex spiral -->
  <path d="M50,40 Q45,35 40,40 Q45,45 50,40 Q55,35 60,40 Q55,45 50,40" fill="none" stroke="#00D4AA" stroke-width="3"/>
  <path d="M50,40 Q42,30 30,40 Q42,50 50,40 Q58,30 70,40 Q58,50 50,40" fill="none" stroke="#0099CC" stroke-width="2"/>
  <path d="M50,40 Q35,20 15,40 Q35,60 50,40 Q65,20 85,40 Q65,60 50,40" fill="none" stroke="#003366" stroke-width="1"/>
  <!-- Vortex center -->
  <circle cx="50" cy="40" r="5" fill="url(#vortex)"/>
  <!-- Spiral text -->
  <text x="100" y="35" font-family="Arial Black, sans-serif" font-size="20" font-weight="900" fill="#00D4AA">すいすい</text>
  <text x="100" y="52" font-family="Arial Black, sans-serif" font-size="16" font-weight="900" fill="#0099CC">リーダー</text>
  <text x="100" y="65" font-family="Arial, sans-serif" font-size="9" fill="#003366">VORTEX POWER</text>
</svg>