<svg width="240" height="80" viewBox="0 0 240 80" xmlns="http://www.w3.org/2000/svg">
  <!-- Book pages (from logo15 style) -->
  <rect x="15" y="25" width="18" height="22" fill="#F1F5F9" stroke="#64748B" stroke-width="1" rx="1"/>
  <rect x="18" y="22" width="18" height="22" fill="#F8FAFC" stroke="#3B82F6" stroke-width="1" rx="1"/>
  <rect x="21" y="19" width="18" height="22" fill="white" stroke="#06B6D4" stroke-width="1" rx="1"/>
  <!-- Page lines -->
  <line x1="23" y1="23" x2="37" y2="23" stroke="#CBD5E1" stroke-width="0.5"/>
  <line x1="23" y1="26" x2="35" y2="26" stroke="#CBD5E1" stroke-width="0.5"/>
  <line x1="23" y1="29" x2="37" y2="29" stroke="#CBD5E1" stroke-width="0.5"/>
  <line x1="23" y1="32" x2="32" y2="32" stroke="#CBD5E1" stroke-width="0.5"/>
  <line x1="23" y1="35" x2="36" y2="35" stroke="#CBD5E1" stroke-width="0.5"/>
  <line x1="23" y1="38" x2="34" y2="38" stroke="#CBD5E1" stroke-width="0.5"/>
  
  <!-- Flowing letters (enhanced from logo12) -->
  <text x="50" y="35" font-family="Arial, sans-serif" font-size="18" font-weight="bold" fill="#3B82F6" transform="rotate(-3 50 35)">す</text>
  <text x="65" y="30" font-family="Arial, sans-serif" font-size="18" font-weight="bold" fill="#06B6D4" transform="rotate(-1 65 30)">い</text>
  <text x="80" y="32" font-family="Arial, sans-serif" font-size="18" font-weight="bold" fill="#0EA5E9" transform="rotate(2 80 32)">す</text>
  <text x="95" y="28" font-family="Arial, sans-serif" font-size="18" font-weight="bold" fill="#3B82F6" transform="rotate(1 95 28)">い</text>
  
  
  <!-- Regular text -->
  <text x="115" y="30" font-family="Arial, sans-serif" font-size="16" font-weight="bold" fill="#1E40AF">リーダー</text>
  <text x="115" y="45" font-family="Arial, sans-serif" font-size="10" fill="#64748B">gorilla Reader</text>
</svg>