<svg width="240" height="80" viewBox="0 0 240 80" xmlns="http://www.w3.org/2000/svg">
  <defs>
    <radialGradient id="fire" cx="50%" cy="50%" r="50%">
      <stop offset="0%" style="stop-color:#FFFF00;stop-opacity:1" />
      <stop offset="50%" style="stop-color:#FF4500;stop-opacity:1" />
      <stop offset="100%" style="stop-color:#DC143C;stop-opacity:1" />
    </radialGradient>
  </defs>
  <!-- Fire flames -->
  <path d="M25,60 Q20,45 30,35 Q25,25 35,20 Q30,15 40,25 Q45,15 50,30 Q55,20 60,35 Q65,25 70,40 Q75,30 80,50 Q85,40 90,60" fill="url(#fire)"/>
  <path d="M30,55 Q35,40 45,35 Q50,25 55,40 Q60,30 65,45 Q70,35 75,55" fill="#FFD700" opacity="0.8"/>
  <!-- Energy particles -->
  <circle cx="95" cy="25" r="2" fill="#FFD700"/>
  <circle cx="105" cy="30" r="1.5" fill="#FF4500"/>
  <circle cx="100" cy="35" r="1" fill="#FFFF00"/>
  <circle cx="110" cy="28" r="1.5" fill="#FF6347"/>
  <!-- Powerful text -->
  <text x="125" y="35" font-family="Arial Black, sans-serif" font-size="20" font-weight="900" fill="#FF4500">すいすい</text>
  <text x="125" y="55" font-family="Arial Black, sans-serif" font-size="16" font-weight="900" fill="#DC143C">リーダー</text>
  <text x="125" y="68" font-family="Arial, sans-serif" font-size="9" fill="#FF6347">POWER READING</text>
</svg>